<?xml version="1.0" encoding="UTF-8" standalone="no"?>
<svg
   version="1.1"
   id="Layer_1"
   x="0px"
   y="0px"
   width="1147px"
   height="1147px"
   viewBox="0 0 1147 1147"
   enable-background="new 0 0 1147 1147"
   xml:space="preserve"
   sodipodi:docname="qr-code.svg"
   inkscape:version="1.4.1 (93de688d07, 2025-03-30)"
   xmlns:inkscape="http://www.inkscape.org/namespaces/inkscape"
   xmlns:sodipodi="http://sodipodi.sourceforge.net/DTD/sodipodi-0.dtd"
   xmlns="http://www.w3.org/2000/svg"
   xmlns:svg="http://www.w3.org/2000/svg"><defs
   id="defs931">





























































































































































































































































































































































































































































































































































































































































































































































































































































































































































</defs><sodipodi:namedview
   id="namedview931"
   pagecolor="#ffffff"
   bordercolor="#cccccc"
   borderopacity="1"
   inkscape:showpageshadow="0"
   inkscape:pageopacity="1"
   inkscape:pagecheckerboard="0"
   inkscape:deskcolor="#d1d1d1"
   inkscape:zoom="0.72624237"
   inkscape:cx="574.18848"
   inkscape:cy="573.5"
   inkscape:window-width="1882"
   inkscape:window-height="1061"
   inkscape:window-x="0"
   inkscape:window-y="0"
   inkscape:window-maximized="1"
   inkscape:current-layer="Layer_1" />
<rect
   x="0"
   y="0"
   width="1147"
   height="1147"
   fill="rgb(255,255,255)"
   id="rect1" /><path
   id="rect913"
   style="stroke-width:0.31"
   d="m 1023,1054 h 31 v 31 h -31 z m -62,0 h 31 v 31 h -31 z m -62,0 h 31 v 31 h -31 z m -31,0 h 31 v 31 h -31 z m -31,0 h 31 v 31 h -31 z m -31,0 h 31 v 31 h -31 z m -31,0 h 31 v 31 h -31 z m -31,0 h 31 v 31 h -31 z m -155,0 h 31 v 31 h -31 z m -217,0 h 31 v 31 h -31 z m -62,0 h 31 v 31 h -31 z m 682,-31 h 31 v 31 h -31 z m -62,0 h 31 v 31 h -31 z m -31,0 h 31 v 31 h -31 z m -31,0 h 31 v 31 h -31 z m -31,0 h 31 v 31 h -31 z m -31,0 h 31 v 31 h -31 z m -31,0 h 31 v 31 h -31 z m -124,0 h 31 v 31 h -31 z m -93,0 h 31 v 31 h -31 z m -31,0 h 31 v 31 h -31 z m -62,0 h 31 v 31 h -31 z m -31,0 h 31 v 31 h -31 z m -62,0 h 31 v 31 h -31 z m 682,-31 h 31 v 31 h -31 z m -31,0 h 31 v 31 h -31 z m -62,0 h 31 v 31 h -31 z m -31,0 h 31 v 31 h -31 z m -31,0 h 31 v 31 h -31 z m -93,0 h 31 v 31 h -31 z m -31,0 h 31 v 31 h -31 z m -124,0 h 31 v 31 h -31 z m -31,0 h 31 v 31 h -31 z m -31,0 h 31 v 31 h -31 z m -62,0 h 31 v 31 h -31 z m -62,0 h 31 v 31 h -31 z m -31,0 h 31 v 31 h -31 z m -31,0 h 31 v 31 h -31 z m 651,-31 h 31 v 31 h -31 z m -31,0 h 31 v 31 h -31 z m -31,0 h 31 v 31 h -31 z m -62,0 h 31 v 31 h -31 z m -31,0 h 31 v 31 h -31 z m -62,0 h 31 v 31 h -31 z m -124,0 h 31 v 31 h -31 z m -31,0 h 31 v 31 h -31 z m -31,0 h 31 v 31 h -31 z m -31,0 h 31 v 31 h -31 z m -31,0 h 31 v 31 h -31 z m -31,0 h 31 v 31 h -31 z m -31,0 h 31 v 31 h -31 z m -62,0 h 31 v 31 h -31 z m -93,0 h 31 v 31 h -31 z m -31,0 h 31 v 31 h -31 z m 713,-31 h 31 v 31 h -31 z m -31,0 h 31 v 31 h -31 z m -62,0 h 31 v 31 h -31 z m -31,0 h 31 v 31 h -31 z m -31,0 h 31 v 31 h -31 z m -31,0 h 31 v 31 h -31 z m -31,0 h 31 v 31 h -31 z m -31,0 h 31 v 31 h -31 z m -62,0 h 31 v 31 h -31 z m -155,0 h 31 v 31 h -31 z m -31,0 h 31 v 31 h -31 z m -62,0 h 31 v 31 h -31 z m -62,0 h 31 v 31 h -31 z m -31,0 h 31 v 31 h -31 z m -31,0 h 31 v 31 h -31 z m 682,-31 h 31 v 31 h -31 z m -31,0 h 31 v 31 h -31 z m -31,0 h 31 v 31 h -31 z m -31,0 h 31 v 31 h -31 z m -31,0 h 31 v 31 h -31 z m -124,0 h 31 v 31 h -31 z m -31,0 h 31 v 31 h -31 z m -124,0 h 31 v 31 h -31 z m -31,0 h 31 v 31 h -31 z m -93,0 h 31 v 31 h -31 z m -31,0 h 31 v 31 h -31 z m -31,0 h 31 v 31 h -31 z m -31,0 h 31 v 31 h -31 z m -93,0 h 31 v 31 h -31 z m 651,-31 h 31 v 31 h -31 z m -62,0 h 31 v 31 h -31 z m -62,0 h 31 v 31 h -31 z m -62,0 h 31 v 31 h -31 z m -31,0 h 31 v 31 h -31 z m -62,0 h 31 v 31 h -31 z m -31,0 h 31 v 31 h -31 z m -124,0 h 31 v 31 h -31 z m -31,0 h 31 v 31 h -31 z m -31,0 h 31 v 31 h -31 z m -124,0 h 31 v 31 h -31 z m 682,-31 h 31 v 31 h -31 z m -62,0 h 31 v 31 h -31 z m -62,0 h 31 v 31 h -31 z m -124,0 h 31 v 31 h -31 z m -93,0 h 31 v 31 h -31 z m -31,0 h 31 v 31 h -31 z m -31,0 h 31 v 31 h -31 z m -31,0 h 31 v 31 h -31 z m -93,0 h 31 v 31 h -31 z m -31,0 h 31 v 31 h -31 z m -124,0 h 31 v 31 h -31 z m -62,0 h 31 v 31 h -31 z m 620,-31 h 31 v 31 h -31 z m -31,0 h 31 v 31 h -31 z m -31,0 h 31 v 31 h -31 z m -31,0 h 31 v 31 h -31 z m -31,0 h 31 v 31 h -31 z m -31,0 h 31 v 31 h -31 z m -31,0 h 31 v 31 h -31 z m -62,0 h 31 v 31 h -31 z m -31,0 h 31 v 31 h -31 z m -93,0 h 31 v 31 h -31 z m -31,0 h 31 v 31 h -31 z m -31,0 h 31 v 31 h -31 z m -124,0 h 31 v 31 h -31 z m -62,0 h 31 v 31 h -31 z m -31,0 h 31 v 31 h -31 z m -31,0 h 31 v 31 h -31 z m -93,0 h 31 v 31 h -31 z m -31,0 h 31 v 31 h -31 z m -31,0 h 31 v 31 H 93 Z m -31,0 h 31 v 31 H 62 Z m 930,-31 h 31 v 31 h -31 z m -124,0 h 31 v 31 h -31 z m -62,0 h 31 v 31 h -31 z m -31,0 h 31 v 31 h -31 z m -31,0 h 31 v 31 h -31 z m -124,0 h 31 v 31 h -31 z m -93,0 h 31 v 31 h -31 z m -62,0 h 31 v 31 h -31 z m -93,0 h 31 v 31 h -31 z m -31,0 h 31 v 31 h -31 z m -31,0 h 31 v 31 h -31 z m -31,0 h 31 v 31 h -31 z m -217,0 h 31 v 31 H 62 Z m 961,-31 h 31 v 31 h -31 z m -31,0 h 31 v 31 h -31 z m -31,0 h 31 v 31 h -31 z m -62,0 h 31 v 31 h -31 z m -62,0 h 31 v 31 h -31 z m -93,0 h 31 v 31 h -31 z m -62,0 h 31 v 31 h -31 z m -93,0 h 31 v 31 h -31 z m -62,0 h 31 v 31 h -31 z m -62,0 h 31 v 31 h -31 z m -93,0 h 31 v 31 h -31 z m -31,0 h 31 v 31 h -31 z m -93,0 h 31 v 31 h -31 z m -186,0 h 31 v 31 H 62 Z m 899,-31 h 31 v 31 h -31 z m -31,0 h 31 v 31 h -31 z m -62,0 h 31 v 31 h -31 z m -124,0 h 31 v 31 h -31 z m -31,0 h 31 v 31 h -31 z m -62,0 h 31 v 31 h -31 z m -62,0 h 31 v 31 h -31 z m -62,0 h 31 v 31 h -31 z m -124,0 h 31 v 31 h -31 z m -31,0 h 31 v 31 h -31 z m -62,0 h 31 v 31 h -31 z m -31,0 h 31 v 31 h -31 z m -62,0 h 31 v 31 h -31 z m -62,0 h 31 v 31 h -31 z m -31,0 h 31 v 31 h -31 z m -31,0 h 31 v 31 H 93 Z m -31,0 h 31 v 31 H 62 Z m 992,-31 h 31 v 31 h -31 z m -31,0 h 31 v 31 h -31 z m -62,0 h 31 v 31 h -31 z m -31,0 h 31 v 31 h -31 z m -93,0 h 31 v 31 h -31 z m -31,0 h 31 v 31 h -31 z m -31,0 h 31 v 31 h -31 z m -31,0 h 31 v 31 h -31 z m -93,0 h 31 v 31 h -31 z m -62,0 h 31 v 31 h -31 z m -31,0 h 31 v 31 h -31 z m -62,0 h 31 v 31 h -31 z m -62,0 h 31 v 31 h -31 z m -124,0 h 31 v 31 h -31 z m -31,0 h 31 v 31 h -31 z m -31,0 h 31 v 31 h -31 z m -31,0 h 31 v 31 h -31 z m -62,0 h 31 v 31 h -31 z m -31,0 h 31 v 31 h -31 z m -31,0 h 31 v 31 H 93 Z m 930,-31 h 31 v 31 h -31 z m -31,0 h 31 v 31 h -31 z m -31,0 h 31 v 31 h -31 z m -31,0 h 31 v 31 h -31 z m -93,0 h 31 v 31 h -31 z m -62,0 h 31 v 31 h -31 z m -31,0 h 31 v 31 h -31 z m -186,0 h 31 v 31 h -31 z m -31,0 h 31 v 31 h -31 z m -31,0 h 31 v 31 h -31 z m -31,0 h 31 v 31 h -31 z m -31,0 h 31 v 31 h -31 z m -62,0 h 31 v 31 h -31 z m -31,0 h 31 v 31 h -31 z m -62,0 h 31 v 31 h -31 z m -93,0 h 31 v 31 h -31 z m -31,0 h 31 v 31 h -31 z m -31,0 h 31 v 31 h -31 z m -31,0 h 31 v 31 H 93 Z m 961,-31 h 31 v 31 h -31 z m -62,0 h 31 v 31 h -31 z m -31,0 h 31 v 31 h -31 z m -62,0 h 31 v 31 h -31 z m -124,0 h 31 v 31 h -31 z m -124,0 h 31 v 31 h -31 z m -31,0 h 31 v 31 h -31 z m -93,0 h 31 v 31 h -31 z m -62,0 h 31 v 31 h -31 z m -31,0 h 31 v 31 h -31 z m -93,0 h 31 v 31 h -31 z m -31,0 h 31 v 31 h -31 z m -31,0 h 31 v 31 h -31 z m -31,0 h 31 v 31 h -31 z m -62,0 h 31 v 31 h -31 z m -93,0 h 31 v 31 H 93 Z m 899,-31 h 31 v 31 h -31 z m -31,0 h 31 v 31 h -31 z m -93,0 h 31 v 31 h -31 z m -93,0 h 31 v 31 h -31 z m -93,0 h 31 v 31 h -31 z m -31,0 h 31 v 31 h -31 z m -31,0 h 31 v 31 h -31 z m -62,0 h 31 v 31 h -31 z m -62,0 h 31 v 31 h -31 z m -31,0 h 31 v 31 h -31 z m -62,0 h 31 v 31 h -31 z m -31,0 h 31 v 31 h -31 z m -31,0 h 31 v 31 h -31 z m -31,0 h 31 v 31 h -31 z m -31,0 h 31 v 31 h -31 z m -62,0 h 31 v 31 h -31 z m -31,0 h 31 v 31 h -31 z m -31,0 h 31 v 31 h -31 z m -62,0 h 31 v 31 H 93 Z m 961,-31 h 31 v 31 h -31 z m -124,0 h 31 v 31 h -31 z m -31,0 h 31 v 31 h -31 z m -62,0 h 31 v 31 h -31 z m -31,0 h 31 v 31 h -31 z m -31,0 h 31 v 31 h -31 z m -31,0 h 31 v 31 h -31 z m -62,0 h 31 v 31 h -31 z m -31,0 h 31 v 31 h -31 z m -31,0 h 31 v 31 h -31 z m -31,0 h 31 v 31 h -31 z m -31,0 h 31 v 31 h -31 z m -62,0 h 31 v 31 h -31 z m -62,0 h 31 v 31 h -31 z m -31,0 h 31 v 31 h -31 z m -31,0 h 31 v 31 h -31 z m -62,0 h 31 v 31 h -31 z m -62,0 h 31 v 31 h -31 z m -31,0 h 31 v 31 h -31 z m -124,0 h 31 v 31 H 93 Z m 961,-31 h 31 v 31 h -31 z m -62,0 h 31 v 31 h -31 z m -62,0 h 31 v 31 h -31 z m -93,0 h 31 v 31 h -31 z m -217,0 h 31 v 31 h -31 z m -62,0 h 31 v 31 h -31 z m -62,0 h 31 v 31 h -31 z m -31,0 h 31 v 31 h -31 z m -31,0 h 31 v 31 h -31 z m -31,0 h 31 v 31 h -31 z m -62,0 h 31 v 31 h -31 z m -31,0 h 31 v 31 h -31 z m -31,0 h 31 v 31 h -31 z m -93,0 h 31 v 31 h -31 z m -31,0 h 31 v 31 h -31 z m -31,0 h 31 v 31 h -31 z m -31,0 h 31 v 31 H 93 Z m -31,0 h 31 v 31 H 62 Z m 961,-31 h 31 v 31 h -31 z m -93,0 h 31 v 31 h -31 z m -31,0 h 31 v 31 h -31 z m -31,0 h 31 v 31 h -31 z m -31,0 h 31 v 31 h -31 z m -93,0 h 31 v 31 h -31 z m -124,0 h 31 v 31 h -31 z m -31,0 h 31 v 31 h -31 z m -31,0 h 31 v 31 h -31 z m -31,0 h 31 v 31 h -31 z m -31,0 h 31 v 31 h -31 z m -124,0 h 31 v 31 h -31 z m -62,0 h 31 v 31 h -31 z m -62,0 h 31 v 31 h -31 z m -93,0 h 31 v 31 h -31 z m -93,0 h 31 v 31 H 62 Z m 992,-31 h 31 v 31 h -31 z m -31,0 h 31 v 31 h -31 z m -31,0 h 31 v 31 h -31 z m -124,0 h 31 v 31 h -31 z m -62,0 h 31 v 31 h -31 z m -31,0 h 31 v 31 h -31 z m -124,0 h 31 v 31 h -31 z m -124,0 h 31 v 31 h -31 z m -31,0 h 31 v 31 h -31 z m -62,0 h 31 v 31 h -31 z m -124,0 h 31 v 31 h -31 z m -217,0 h 31 v 31 H 93 Z m -31,0 h 31 v 31 H 62 Z m 992,-31 h 31 v 31 h -31 z m -186,0 h 31 v 31 h -31 z m -31,0 h 31 v 31 h -31 z m -31,0 h 31 v 31 h -31 z m -31,0 h 31 v 31 h -31 z m -93,0 h 31 v 31 h -31 z m -31,0 h 31 v 31 h -31 z m -93,0 h 31 v 31 h -31 z m -31,0 h 31 v 31 h -31 z m -31,0 h 31 v 31 h -31 z m -31,0 h 31 v 31 h -31 z m -31,0 h 31 v 31 h -31 z m -62,0 h 31 v 31 h -31 z m -62,0 h 31 v 31 h -31 z m -62,0 h 31 v 31 h -31 z m -62,0 h 31 v 31 h -31 z m -62,0 h 31 v 31 h -31 z m -62,0 h 31 v 31 H 62 Z m 992,-31 h 31 v 31 h -31 z m -62,0 h 31 v 31 h -31 z m -31,0 h 31 v 31 h -31 z m -31,0 h 31 v 31 h -31 z m -31,0 h 31 v 31 h -31 z m -62,0 h 31 v 31 h -31 z m -93,0 h 31 v 31 h -31 z m -62,0 h 31 v 31 h -31 z m -155,0 h 31 v 31 h -31 z m -31,0 h 31 v 31 h -31 z m -93,0 h 31 v 31 h -31 z m -62,0 h 31 v 31 h -31 z m -62,0 h 31 v 31 h -31 z m -62,0 h 31 v 31 h -31 z m -31,0 h 31 v 31 h -31 z m -31,0 h 31 v 31 h -31 z m -31,0 h 31 v 31 h -31 z m -62,0 h 31 v 31 H 62 Z m 961,-31 h 31 v 31 h -31 z m -31,0 h 31 v 31 h -31 z m -62,0 h 31 v 31 h -31 z m -93,0 h 31 v 31 h -31 z m -31,0 h 31 v 31 h -31 z m -62,0 h 31 v 31 h -31 z m -124,0 h 31 v 31 h -31 z m -62,0 h 31 v 31 h -31 z m -31,0 h 31 v 31 h -31 z m -93,0 h 31 v 31 h -31 z m -62,0 h 31 v 31 h -31 z m -62,0 h 31 v 31 h -31 z m -31,0 h 31 v 31 h -31 z m -31,0 h 31 v 31 h -31 z m -31,0 h 31 v 31 h -31 z m -31,0 h 31 v 31 h -31 z m -62,0 h 31 v 31 h -31 z m -31,0 h 31 v 31 H 93 Z m 961,-31 h 31 v 31 h -31 z m -31,0 h 31 v 31 h -31 z m -31,0 h 31 v 31 h -31 z m -31,0 h 31 v 31 h -31 z m -31,0 h 31 v 31 h -31 z m -155,0 h 31 v 31 h -31 z m -31,0 h 31 v 31 h -31 z m -31,0 h 31 v 31 h -31 z m -62,0 h 31 v 31 h -31 z m -31,0 h 31 v 31 h -31 z m -31,0 h 31 v 31 h -31 z m -62,0 h 31 v 31 h -31 z m -31,0 h 31 v 31 h -31 z m -155,0 h 31 v 31 h -31 z m -31,0 h 31 v 31 h -31 z m -31,0 h 31 v 31 h -31 z m -124,0 h 31 v 31 h -31 z m -31,0 h 31 v 31 h -31 z m -62,0 h 31 v 31 H 62 Z m 961,-31 h 31 v 31 h -31 z m -31,0 h 31 v 31 h -31 z m -31,0 h 31 v 31 h -31 z m -93,0 h 31 v 31 h -31 z m -31,0 h 31 v 31 h -31 z m -62,0 h 31 v 31 h -31 z m -31,0 h 31 v 31 h -31 z m -93,0 h 31 v 31 h -31 z m -62,0 h 31 v 31 h -31 z m -93,0 h 31 v 31 h -31 z m -62,0 h 31 v 31 h -31 z m -31,0 h 31 v 31 h -31 z m -31,0 h 31 v 31 h -31 z m -62,0 h 31 v 31 h -31 z m -62,0 h 31 v 31 h -31 z m -186,0 h 31 v 31 H 62 Z m 682,-31 h 31 v 31 h -31 z m -62,0 h 31 v 31 h -31 z m -124,0 h 31 v 31 h -31 z m -31,0 h 31 v 31 h -31 z m -124,0 h 31 v 31 h -31 z m -31,0 h 31 v 31 h -31 z m -31,0 h 31 v 31 h -31 z m -31,0 h 31 v 31 h -31 z m 496,-31 h 31 v 31 h -31 z m -62,0 h 31 v 31 h -31 z m -62,0 h 31 v 31 h -31 z m -62,0 h 31 v 31 h -31 z m -62,0 h 31 v 31 h -31 z m -62,0 h 31 v 31 h -31 z m -62,0 h 31 v 31 h -31 z m -62,0 h 31 v 31 h -31 z m -62,0 h 31 v 31 h -31 z m 372,-31 h 31 v 31 h -31 z m -124,0 h 31 v 31 h -31 z m -62,0 h 31 v 31 h -31 z m -62,0 h 31 v 31 h -31 z m -62,0 h 31 v 31 h -31 z m -31,0 h 31 v 31 h -31 z m 341,-31 h 31 v 31 h -31 z m -62,0 h 31 v 31 h -31 z m -93,0 h 31 v 31 h -31 z m 279,-31 h 31 v 31 h -31 z m -93,0 h 31 v 31 h -31 z m -31,0 h 31 v 31 h -31 z m -31,0 h 31 v 31 h -31 z m -62,0 h 31 v 31 h -31 z m -31,0 h 31 v 31 h -31 z m -31,0 h 31 v 31 h -31 z m -93,0 h 31 v 31 h -31 z m -31,0 h 31 v 31 h -31 z m -31,0 h 31 v 31 h -31 z m -62,0 h 31 v 31 h -31 z m 496,-31 h 31 v 31 h -31 z m -31,0 h 31 v 31 h -31 z m -62,0 h 31 v 31 h -31 z m -93,0 h 31 v 31 h -31 z m -62,0 h 31 v 31 h -31 z m -93,0 h 31 v 31 h -31 z m -62,0 h 31 v 31 h -31 z m -93,0 h 31 v 31 H 310 Z M 806,93 h 31 v 31 h -31 z m -62,0 h 31 v 31 h -31 z m -124,0 h 31 v 31 h -31 z m -62,0 h 31 v 31 h -31 z m -62,0 h 31 v 31 h -31 z m -31,0 h 31 v 31 h -31 z m -31,0 h 31 v 31 h -31 z m -93,0 h 31 v 31 h -31 z m -31,0 h 31 v 31 H 310 Z M 744,62 h 31 v 31 h -31 z m -310,0 h 31 v 31 h -31 z m -31,0 h 31 v 31 h -31 z" /><g
   id="g916"
   transform="matrix(2.17,0,0,2.17,62,62)"
   style="fill:#000000">
	<rect
   x="15"
   y="15"
   style="fill:none"
   width="70"
   height="70"
   id="rect915" />
	<path
   d="M 85,0 H 15 0 v 15 70 15 h 15 70 15 V 85 15 0 Z m 0,85 H 15 V 15 h 70 z"
   id="path915" />
</g><g
   id="g919"
   transform="matrix(2.17,0,0,2.17,868,62)"
   style="fill:#000000">
	<rect
   x="15"
   y="15"
   style="fill:none"
   width="70"
   height="70"
   id="rect918" />
	<path
   d="M 85,0 H 15 0 v 15 70 15 h 15 70 15 V 85 15 0 Z m 0,85 H 15 V 15 h 70 z"
   id="path918" />
</g><g
   id="g922"
   transform="matrix(2.17,0,0,2.17,62,868)"
   style="fill:#000000">
	<rect
   x="15"
   y="15"
   style="fill:none"
   width="70"
   height="70"
   id="rect921" />
	<path
   d="M 85,0 H 15 0 v 15 70 15 h 15 70 15 V 85 15 0 Z m 0,85 H 15 V 15 h 70 z"
   id="path921" />
</g><rect
   width="93"
   height="93"
   id="rect924"
   x="124"
   y="124"
   style="fill:#000000;stroke-width:0.93" /><rect
   width="93"
   height="93"
   id="rect926"
   x="930"
   y="124"
   style="fill:#000000;stroke-width:0.93" /><rect
   width="93"
   height="93"
   id="rect928"
   x="124"
   y="930"
   style="fill:#000000;stroke-width:0.93" /></svg>
